<svg xmlns="http://www.w3.org/2000/svg" version="1.1" xmlns:xlink="http://www.w3.org/1999/xlink" xmlns:svgjs="http://svgjs.dev/svgjs" viewBox="0 0 18.316130002856465 6.111432493090838"><g transform="matrix(0.7501393713682664,0,0,0.7501393713682664,6.409218573099162,2.3269324054057927)"><rect width="20.351760210852074" height="20.351760210852074" x="-6.5114324930908385" y="-9.204348855426037" fill="#404040"></rect><g clip-path="url(#SvgjsClipPath92091)"><path d=" M -4.47580228509523 0.97153125 C -4.47580228509523 -0.15397047269179717 -3.5634028652394134 -1.0663698925476144 -2.4379011425476156 -1.0663698925476148 C -1.3123994198558182 -1.0663698925476148 -0.4000000000000008 -0.1539704726917979 -0.40000000000000036 0.9715312499999995 C -0.40000000000000036 2.097032972691797 -1.3123994198558178 3.009432392547615 -2.437901142547615 3.009432392547615 C -3.5634028652394125 3.009432392547615 -4.47580228509523 2.097032972691798 -4.47580228509523 0.9715312500000002 Z M -4.37733090188733 0.97153125 C -4.377330901887329 2.0426487294513302 -3.5090186219989445 2.9109610093397142 -2.437901142547615 2.9109610093397142 C -1.3667836630962853 2.9109610093397142 -0.4984713832079013 2.0426487294513294 -0.4984713832079013 0.97153125 C -0.4984713832079013 -0.0995862294513298 -1.3667836630962853 -0.9678985093397141 -2.437901142547615 -0.9678985093397141 C -3.5090186219989445 -0.9678985093397141 -4.377330901887329 -0.09958622945132997 -4.37733090188733 0.9715312499999997 Z" fill="#4e888f" transform="matrix(1,0,0,1,0,0)" fill-rule="nonzero"></path><path d=" M -2.553940675992916 1.6935690720284597 L -2.553940675992916 0.24949342797154067 L -2.2975160289173884 0.24949342797154067 C -2.275922374426818 0.24949342797154067 -2.25972713355889 0.2656886688394686 -2.25972713355889 0.2872823233300395 L -2.25972713355889 1.655780176669961 C -2.25972713355889 1.6881706584058167 -2.267824753992854 1.6935690720284597 -2.2975160289173884 1.6935690720284597 M -2.1544580679173575 1.9904818212738074 C -2.008700900106005 1.9904818212738074 -1.8980334208418297 1.917603237368131 -1.8980334208418297 1.7799436899907428 L -1.8980334208418297 0.2090053258017206 C -1.8980334208418297 0.04435371031111855 -1.9925056592380768 -0.047419321273807075 -2.1922469632758563 -0.047419321273807075 L -2.9723177317477245 -0.047419321273807075 C -3.0101066271062233 -0.047419321273807075 -3.031700281596794 -0.025825666783236573 -3.031700281596794 -0.0015328054813444417 C -3.031700281596794 0.05515053755640399 -2.9156343887099765 0.11723229421679496 -2.9156343887099765 0.22520056666964855 L -2.9156343887099765 1.7178619333303518 C -2.9156343887099765 1.8258302057832054 -3.031700281596794 1.8879119624435963 -3.031700281596794 1.9445953054813445 C -3.031700281596794 1.9688881667832365 -3.0101066271062233 1.9904818212738074 -2.9723177317477245 1.9904818212738074" fill="#4e888f" transform="matrix(1,0,0,1,0,0)" fill-rule="nonzero"></path></g><g><path d=" M 0.0915 1.0649999999999997 L 0.0915 -2.220446049250313e-16 L 0.501 -2.220446049250313e-16 Q 0.678 -2.220446049250313e-16 0.79725 0.0712499999999997 Q 0.9165 0.14249999999999974 0.9772500000000001 0.26324999999999976 Q 1.038 0.3839999999999997 1.038 0.5309999999999997 Q 1.038 0.6929999999999997 0.9712500000000001 0.8129999999999997 Q 0.9045 0.9329999999999997 0.7837500000000001 0.9989999999999997 Q 0.663 1.0649999999999997 0.501 1.0649999999999997 L 0.0915 1.0649999999999997 M 0.741 0.5309999999999997 Q 0.741 0.4484999999999997 0.7125 0.38624999999999976 Q 0.684 0.32399999999999973 0.63 0.28949999999999976 Q 0.5760000000000001 0.25499999999999967 0.501 0.25499999999999967 L 0.384 0.25499999999999967 L 0.384 0.8099999999999997 L 0.501 0.8099999999999997 Q 0.5775 0.8099999999999997 0.63075 0.7739999999999998 Q 0.684 0.7379999999999998 0.7125 0.6742499999999998 Q 0.741 0.6104999999999997 0.741 0.5309999999999997 M 1.1700051269531249 1.0649999999999997 L 1.1700051269531249 -2.220446049250313e-16 L 1.659005126953125 -2.220446049250313e-16 Q 1.7370051269531248 -2.220446049250313e-16 1.803005126953125 0.03149999999999964 Q 1.869005126953125 0.06299999999999972 1.917005126953125 0.11624999999999974 Q 1.965005126953125 0.16949999999999965 1.9912551269531251 0.2354999999999997 Q 2.0175051269531252 0.30149999999999966 2.0175051269531252 0.36899999999999966 Q 2.0175051269531252 0.43049999999999966 1.999505126953125 0.4874999999999997 Q 1.981505126953125 0.5444999999999998 1.947005126953125 0.5917499999999998 Q 1.9125051269531248 0.6389999999999998 1.864505126953125 0.6734999999999998 L 2.0895051269531253 1.0649999999999997 L 1.7685051269531251 1.0649999999999997 L 1.5810051269531251 0.7379999999999998 L 1.462505126953125 0.7379999999999998 L 1.462505126953125 1.0649999999999997 L 1.1700051269531249 1.0649999999999997 M 1.462505126953125 0.48299999999999976 L 1.647005126953125 0.48299999999999976 Q 1.665005126953125 0.48299999999999976 1.681505126953125 0.4694999999999997 Q 1.698005126953125 0.45599999999999974 1.709255126953125 0.43049999999999966 Q 1.720505126953125 0.4049999999999997 1.720505126953125 0.36899999999999966 Q 1.720505126953125 0.3314999999999997 1.707755126953125 0.30674999999999975 Q 1.695005126953125 0.2819999999999997 1.676255126953125 0.26849999999999974 Q 1.657505126953125 0.25499999999999967 1.6395051269531251 0.25499999999999967 L 1.462505126953125 0.25499999999999967 L 1.462505126953125 0.48299999999999976 M 2.18698681640625 1.0649999999999997 L 2.18698681640625 -2.220446049250313e-16 L 2.47948681640625 -2.220446049250313e-16 L 2.47948681640625 1.0649999999999997 L 2.18698681640625 1.0649999999999997 M 2.87251171875 -2.220446049250313e-16 L 3.08101171875 0.7274999999999997 L 3.28651171875 -2.220446049250313e-16 L 3.59401171875 -2.220446049250313e-16 L 3.2265117187500003 1.0649999999999997 L 2.93551171875 1.0649999999999997 L 2.56351171875 -2.220446049250313e-16 L 2.87251171875 -2.220446049250313e-16 M 4.43850732421875 0.8099999999999997 L 4.43850732421875 1.0649999999999997 L 3.6795073242187497 1.0649999999999997 L 3.6795073242187497 -2.220446049250313e-16 L 4.4250073242187495 -2.220446049250313e-16 L 4.4250073242187495 0.25499999999999967 L 3.9720073242187497 0.25499999999999967 L 3.9720073242187497 0.4049999999999997 L 4.35900732421875 0.4049999999999997 L 4.35900732421875 0.6419999999999997 L 3.9720073242187497 0.6419999999999997 L 3.9720073242187497 0.8099999999999997 L 4.43850732421875 0.8099999999999997 M 5.521484619140625 -2.220446049250313e-16 L 5.521484619140625 1.0649999999999997 L 5.228984619140625 1.0649999999999997 L 5.228984619140625 0.6479999999999997 L 4.871984619140625 0.6479999999999997 L 4.871984619140625 1.0649999999999997 L 4.579484619140625 1.0649999999999997 L 4.579484619140625 -2.220446049250313e-16 L 4.871984619140625 -2.220446049250313e-16 L 4.871984619140625 0.3929999999999997 L 5.228984619140625 0.3929999999999997 L 5.228984619140625 -2.220446049250313e-16 L 5.521484619140625 -2.220446049250313e-16 M 5.708984619140625 1.0649999999999997 L 5.708984619140625 -2.220446049250313e-16 L 6.0014846191406255 -2.220446049250313e-16 L 6.0014846191406255 1.0649999999999997 L 5.708984619140625 1.0649999999999997 M 6.394509521484375 -2.220446049250313e-16 L 6.603009521484376 0.7274999999999997 L 6.808509521484376 -2.220446049250313e-16 L 7.116009521484376 -2.220446049250313e-16 L 6.748509521484375 1.0649999999999997 L 6.457509521484376 1.0649999999999997 L 6.085509521484376 -2.220446049250313e-16 L 6.394509521484375 -2.220446049250313e-16 M 7.960505126953126 0.8099999999999997 L 7.960505126953126 1.0649999999999997 L 7.201505126953125 1.0649999999999997 L 7.201505126953125 -2.220446049250313e-16 L 7.947005126953125 -2.220446049250313e-16 L 7.947005126953125 0.25499999999999967 L 7.494005126953126 0.25499999999999967 L 7.494005126953126 0.4049999999999997 L 7.881005126953125 0.4049999999999997 L 7.881005126953125 0.6419999999999997 L 7.494005126953126 0.6419999999999997 L 7.494005126953126 0.8099999999999997 L 7.960505126953126 0.8099999999999997" fill="#ffffff" fill-rule="nonzero"></path></g><g><path d=" M 0.267 1.4143124999999996 L 0.3165 1.4143124999999996 L 0.3915 1.6033124999999997 L 0.46725 1.4143124999999996 L 0.5175 1.4143124999999996 L 0.4245 1.6415624999999996 L 0.5265 1.8823124999999996 L 0.7192500000000001 1.4105624999999997 L 0.77625 1.4105624999999997 L 0.5505 1.9430624999999997 L 0.504 1.9430624999999997 L 0.39225 1.6798124999999997 L 0.27975 1.9430624999999997 L 0.234 1.9430624999999997 L 0.009000000000000001 1.4105624999999997 L 0.06525 1.4105624999999997 L 0.25875 1.8823124999999996 L 0.36 1.6415624999999996 L 0.267 1.4143124999999996 M 1.272390380859375 1.4105624999999997 L 1.272390380859375 1.9430624999999997 L 1.220640380859375 1.9430624999999997 L 1.220640380859375 1.6940624999999998 L 0.904890380859375 1.6940624999999998 L 0.904890380859375 1.9430624999999997 L 0.852390380859375 1.9430624999999997 L 0.852390380859375 1.4105624999999997 L 0.904890380859375 1.4105624999999997 L 0.904890380859375 1.6475624999999998 L 1.220640380859375 1.6475624999999998 L 1.220640380859375 1.4105624999999997 L 1.272390380859375 1.4105624999999997 M 1.7647474365234377 1.8965624999999997 L 1.7647474365234377 1.9430624999999997 L 1.4069974365234377 1.9430624999999997 L 1.4069974365234377 1.4105624999999997 L 1.7579974365234377 1.4105624999999997 L 1.7579974365234377 1.4570624999999997 L 1.4594974365234377 1.4570624999999997 L 1.4594974365234377 1.6490624999999997 L 1.7197474365234375 1.6490624999999997 L 1.7197474365234375 1.6933124999999998 L 1.4594974365234377 1.6933124999999998 L 1.4594974365234377 1.8965624999999997 L 1.7647474365234377 1.8965624999999997 M 1.8648790283203127 1.9430624999999997 L 1.8648790283203127 1.4105624999999997 L 2.0898790283203126 1.4105624999999997 Q 2.1243790283203126 1.4105624999999997 2.1528790283203127 1.4248124999999998 Q 2.1813790283203125 1.4390624999999997 2.202754028320313 1.4634374999999997 Q 2.224129028320313 1.4878124999999998 2.235754028320313 1.5174374999999998 Q 2.2473790283203128 1.5470624999999996 2.2473790283203128 1.5778124999999996 Q 2.2473790283203128 1.6160624999999997 2.2327540283203127 1.6498124999999997 Q 2.2181290283203126 1.6835624999999996 2.1915040283203124 1.7068124999999996 Q 2.1648790283203128 1.7300624999999996 2.1288790283203127 1.7375624999999997 L 2.259379028320313 1.9430624999999997 L 2.2001290283203128 1.9430624999999997 L 2.0748790283203125 1.7465624999999996 L 1.9173790283203127 1.7465624999999996 L 1.9173790283203127 1.9430624999999997 L 1.8648790283203127 1.9430624999999997 M 1.9173790283203127 1.7000624999999996 L 2.0913790283203126 1.7000624999999996 Q 2.1228790283203125 1.7000624999999996 2.1461290283203125 1.6828124999999998 Q 2.1693790283203125 1.6655624999999996 2.1821290283203125 1.6374374999999997 Q 2.1948790283203126 1.6093124999999997 2.1948790283203126 1.5778124999999996 Q 2.1948790283203126 1.5455624999999997 2.1802540283203125 1.5181874999999998 Q 2.165629028320313 1.4908124999999997 2.1412540283203128 1.4739374999999997 Q 2.1168790283203127 1.4570624999999997 2.0868790283203125 1.4570624999999997 L 1.9173790283203127 1.4570624999999997 L 1.9173790283203127 1.7000624999999996 M 2.7135153808593753 1.8965624999999997 L 2.7135153808593753 1.9430624999999997 L 2.355765380859375 1.9430624999999997 L 2.355765380859375 1.4105624999999997 L 2.706765380859375 1.4105624999999997 L 2.706765380859375 1.4570624999999997 L 2.4082653808593752 1.4570624999999997 L 2.4082653808593752 1.6490624999999997 L 2.6685153808593753 1.6490624999999997 L 2.6685153808593753 1.6933124999999998 L 2.4082653808593752 1.6933124999999998 L 2.4082653808593752 1.8965624999999997 L 2.7135153808593753 1.8965624999999997 M 3.006025634765625 1.9430624999999997 L 3.006025634765625 1.4105624999999997 L 3.231025634765625 1.4105624999999997 Q 3.265525634765625 1.4105624999999997 3.2940256347656254 1.4248124999999998 Q 3.322525634765625 1.4390624999999997 3.3439006347656255 1.4634374999999997 Q 3.3652756347656254 1.4878124999999998 3.3769006347656254 1.5174374999999998 Q 3.3885256347656254 1.5470624999999996 3.3885256347656254 1.5778124999999996 Q 3.3885256347656254 1.6160624999999997 3.3739006347656253 1.6498124999999997 Q 3.359275634765625 1.6835624999999996 3.332650634765625 1.7068124999999996 Q 3.3060256347656254 1.7300624999999996 3.2700256347656254 1.7375624999999997 L 3.4005256347656254 1.9430624999999997 L 3.3412756347656254 1.9430624999999997 L 3.216025634765625 1.7465624999999996 L 3.0585256347656253 1.7465624999999996 L 3.0585256347656253 1.9430624999999997 L 3.006025634765625 1.9430624999999997 M 3.0585256347656253 1.7000624999999996 L 3.2325256347656253 1.7000624999999996 Q 3.264025634765625 1.7000624999999996 3.287275634765625 1.6828124999999998 Q 3.310525634765625 1.6655624999999996 3.323275634765625 1.6374374999999997 Q 3.336025634765625 1.6093124999999997 3.336025634765625 1.5778124999999996 Q 3.336025634765625 1.5455624999999997 3.321400634765625 1.5181874999999998 Q 3.3067756347656254 1.4908124999999997 3.2824006347656254 1.4739374999999997 Q 3.2580256347656253 1.4570624999999997 3.228025634765625 1.4570624999999997 L 3.0585256347656253 1.4570624999999997 L 3.0585256347656253 1.7000624999999996 M 3.4969119873046877 1.9430624999999997 L 3.4969119873046877 1.4105624999999997 L 3.549411987304688 1.4105624999999997 L 3.549411987304688 1.9430624999999997 L 3.4969119873046877 1.9430624999999997 M 3.6840263671875 1.9430624999999997 L 3.6840263671875 1.4105624999999997 L 3.8647763671875004 1.4105624999999997 Q 3.9495263671875005 1.4105624999999997 4.0061513671875 1.4461874999999997 Q 4.0627763671875 1.4818124999999998 4.0912763671875005 1.5421874999999998 Q 4.119776367187501 1.6025624999999997 4.119776367187501 1.6760624999999996 Q 4.119776367187501 1.7570624999999997 4.0886513671875 1.8170624999999996 Q 4.0575263671875 1.8770624999999996 4.000151367187501 1.9100624999999998 Q 3.9427763671875002 1.9430624999999997 3.8647763671875004 1.9430624999999997 L 3.6840263671875 1.9430624999999997 M 4.0672763671875005 1.6760624999999996 Q 4.0672763671875005 1.6123124999999998 4.0436513671875005 1.5628124999999997 Q 4.0200263671875005 1.5133124999999996 3.9750263671875006 1.4851874999999997 Q 3.9300263671875 1.4570624999999997 3.8647763671875004 1.4570624999999997 L 3.7365263671875004 1.4570624999999997 L 3.7365263671875004 1.8965624999999997 L 3.8647763671875004 1.8965624999999997 Q 3.9307763671875002 1.8965624999999997 3.9757763671875 1.8673124999999997 Q 4.0207763671875005 1.8380624999999997 4.0440263671875005 1.7881874999999996 Q 4.0672763671875005 1.7383124999999997 4.0672763671875005 1.6760624999999996 M 4.579171508789063 1.8965624999999997 L 4.579171508789063 1.9430624999999997 L 4.221421508789063 1.9430624999999997 L 4.221421508789063 1.4105624999999997 L 4.572421508789063 1.4105624999999997 L 4.572421508789063 1.4570624999999997 L 4.273921508789063 1.4570624999999997 L 4.273921508789063 1.6490624999999997 L 4.534171508789063 1.6490624999999997 L 4.534171508789063 1.6933124999999998 L 4.273921508789063 1.6933124999999998 L 4.273921508789063 1.8965624999999997 L 4.579171508789063 1.8965624999999997 M 4.987531860351563 1.5103124999999997 Q 4.976281860351563 1.4975624999999997 4.961281860351563 1.4874374999999997 Q 4.946281860351563 1.4773124999999996 4.9275318603515625 1.4698124999999997 Q 4.908781860351563 1.4623124999999997 4.887406860351563 1.4578124999999997 Q 4.866031860351563 1.4533124999999996 4.842031860351563 1.4533124999999996 Q 4.772281860351563 1.4533124999999996 4.7396568603515625 1.4799374999999997 Q 4.707031860351563 1.5065624999999998 4.707031860351563 1.5523124999999998 Q 4.707031860351563 1.5838124999999996 4.722406860351563 1.6018124999999996 Q 4.737781860351563 1.6198124999999997 4.770781860351563 1.6310624999999996 Q 4.803781860351563 1.6423124999999996 4.854781860351563 1.6543124999999996 Q 4.911781860351563 1.6663124999999996 4.953031860351563 1.6828124999999998 Q 4.994281860351563 1.6993124999999998 5.016781860351563 1.7274374999999997 Q 5.039281860351563 1.7555624999999997 5.039281860351563 1.8035624999999997 Q 5.039281860351563 1.8403124999999996 5.025031860351563 1.8673124999999997 Q 5.010781860351563 1.8943124999999996 4.985281860351563 1.9123124999999996 Q 4.959781860351563 1.9303124999999997 4.924531860351563 1.9389374999999998 Q 4.889281860351563 1.9475624999999996 4.847281860351563 1.9475624999999996 Q 4.806031860351563 1.9475624999999996 4.768156860351563 1.9389374999999998 Q 4.730281860351563 1.9303124999999997 4.696531860351563 1.9134374999999997 Q 4.662781860351563 1.8965624999999997 4.633531860351563 1.8703124999999996 L 4.659781860351563 1.8275624999999998 Q 4.674031860351563 1.8425624999999997 4.693906860351563 1.8556874999999997 Q 4.713781860351563 1.8688124999999998 4.7381568603515625 1.8793124999999997 Q 4.7625318603515625 1.8898124999999997 4.790656860351563 1.8954374999999997 Q 4.818781860351563 1.9010624999999997 4.848781860351563 1.9010624999999997 Q 4.912531860351563 1.9010624999999997 4.948156860351563 1.8778124999999997 Q 4.983781860351563 1.8545624999999997 4.983781860351563 1.8088124999999997 Q 4.983781860351563 1.7758124999999998 4.965781860351563 1.7559374999999997 Q 4.947781860351563 1.7360624999999996 4.911781860351563 1.7233124999999996 Q 4.875781860351563 1.7105624999999998 4.823281860351563 1.6985624999999998 Q 4.767781860351563 1.6858124999999997 4.729531860351563 1.6700624999999998 Q 4.691281860351563 1.6543124999999996 4.672156860351563 1.6284374999999998 Q 4.653031860351563 1.6025624999999997 4.653031860351563 1.5598124999999996 Q 4.653031860351563 1.5103124999999997 4.677406860351563 1.4761874999999998 Q 4.701781860351563 1.4420624999999996 4.744531860351563 1.4244374999999998 Q 4.787281860351563 1.4068124999999996 4.842781860351563 1.4068124999999996 Q 4.878031860351563 1.4068124999999996 4.908406860351563 1.4139374999999998 Q 4.938781860351563 1.4210624999999997 4.964656860351563 1.4345624999999997 Q 4.990531860351563 1.4480624999999998 5.013031860351563 1.4683124999999997 L 4.987531860351563 1.5103124999999997 M 5.7967814941406255 1.9430624999999997 L 5.7967814941406255 1.5095624999999997 L 5.604031494140625 1.8463124999999998 L 5.571031494140626 1.8463124999999998 L 5.377531494140626 1.5095624999999997 L 5.377531494140626 1.9430624999999997 L 5.325031494140625 1.9430624999999997 L 5.325031494140625 1.4105624999999997 L 5.379031494140626 1.4105624999999997 L 5.5867814941406255 1.7750624999999998 L 5.7960314941406255 1.4105624999999997 L 5.849281494140626 1.4105624999999997 L 5.849281494140626 1.9430624999999997 L 5.7967814941406255 1.9430624999999997 M 6.341667114257813 1.8965624999999997 L 6.341667114257813 1.9430624999999997 L 5.983917114257813 1.9430624999999997 L 5.983917114257813 1.4105624999999997 L 6.334917114257813 1.4105624999999997 L 6.334917114257813 1.4570624999999997 L 6.036417114257813 1.4570624999999997 L 6.036417114257813 1.6490624999999997 L 6.296667114257813 1.6490624999999997 L 6.296667114257813 1.6933124999999998 L 6.036417114257813 1.6933124999999998 L 6.036417114257813 1.8965624999999997 L 6.341667114257813 1.8965624999999997 M 6.799548706054688 1.8965624999999997 L 6.799548706054688 1.9430624999999997 L 6.441798706054688 1.9430624999999997 L 6.441798706054688 1.4105624999999997 L 6.792798706054688 1.4105624999999997 L 6.792798706054688 1.4570624999999997 L 6.494298706054688 1.4570624999999997 L 6.494298706054688 1.6490624999999997 L 6.754548706054688 1.6490624999999997 L 6.754548706054688 1.6933124999999998 L 6.494298706054688 1.6933124999999998 L 6.494298706054688 1.8965624999999997 L 6.799548706054688 1.8965624999999997 M 7.277680297851563 1.4570624999999997 L 7.087930297851563 1.4570624999999997 L 7.087930297851563 1.9430624999999997 L 7.035430297851563 1.9430624999999997 L 7.035430297851563 1.4570624999999997 L 6.845680297851563 1.4570624999999997 L 6.845680297851563 1.4105624999999997 L 7.277680297851563 1.4105624999999997 L 7.277680297851563 1.4570624999999997 M 7.528929199218751 1.9430624999999997 L 7.528929199218751 1.4105624999999997 L 7.753929199218751 1.4105624999999997 Q 7.788429199218751 1.4105624999999997 7.816929199218751 1.4248124999999998 Q 7.845429199218751 1.4390624999999997 7.866804199218751 1.4634374999999997 Q 7.888179199218751 1.4878124999999998 7.89980419921875 1.5174374999999998 Q 7.911429199218751 1.5470624999999996 7.911429199218751 1.5778124999999996 Q 7.911429199218751 1.6160624999999997 7.89680419921875 1.6498124999999997 Q 7.882179199218751 1.6835624999999996 7.8555541992187505 1.7068124999999996 Q 7.82892919921875 1.7300624999999996 7.792929199218751 1.7375624999999997 L 7.92342919921875 1.9430624999999997 L 7.864179199218751 1.9430624999999997 L 7.7389291992187506 1.7465624999999996 L 7.581429199218751 1.7465624999999996 L 7.581429199218751 1.9430624999999997 L 7.528929199218751 1.9430624999999997 M 7.581429199218751 1.7000624999999996 L 7.755429199218751 1.7000624999999996 Q 7.786929199218751 1.7000624999999996 7.810179199218751 1.6828124999999998 Q 7.833429199218751 1.6655624999999996 7.846179199218751 1.6374374999999997 Q 7.858929199218751 1.6093124999999997 7.858929199218751 1.5778124999999996 Q 7.858929199218751 1.5455624999999997 7.844304199218751 1.5181874999999998 Q 7.82967919921875 1.4908124999999997 7.80530419921875 1.4739374999999997 Q 7.78092919921875 1.4570624999999997 7.750929199218751 1.4570624999999997 L 7.581429199218751 1.4570624999999997 L 7.581429199218751 1.7000624999999996 M 8.377565551757813 1.8965624999999997 L 8.377565551757813 1.9430624999999997 L 8.019815551757814 1.9430624999999997 L 8.019815551757814 1.4105624999999997 L 8.370815551757813 1.4105624999999997 L 8.370815551757813 1.4570624999999997 L 8.072315551757812 1.4570624999999997 L 8.072315551757812 1.6490624999999997 L 8.332565551757813 1.6490624999999997 L 8.332565551757813 1.6933124999999998 L 8.072315551757812 1.6933124999999998 L 8.072315551757812 1.8965624999999997 L 8.377565551757813 1.8965624999999997 M 8.477697143554689 1.9430624999999997 L 8.477697143554689 1.4105624999999997 L 8.530197143554688 1.4105624999999997 L 8.530197143554688 1.8965624999999997 L 8.837697143554688 1.8965624999999997 L 8.837697143554688 1.9430624999999997 L 8.477697143554689 1.9430624999999997 M 8.916078002929689 1.9430624999999997 L 8.916078002929689 1.4105624999999997 L 8.968578002929688 1.4105624999999997 L 8.968578002929688 1.9430624999999997 L 8.916078002929689 1.9430624999999997 M 9.2681923828125 1.4105624999999997 L 9.3124423828125 1.4105624999999997 L 9.5336923828125 1.9430624999999997 L 9.478192382812502 1.9430624999999997 L 9.4091923828125 1.7765624999999996 L 9.1699423828125 1.7765624999999996 L 9.101692382812502 1.9430624999999997 L 9.045442382812501 1.9430624999999997 L 9.2681923828125 1.4105624999999997 M 9.3971923828125 1.7353124999999996 L 9.289942382812502 1.4720624999999996 L 9.181192382812501 1.7353124999999996 L 9.3971923828125 1.7353124999999996 M 10.01183642578125 1.8058124999999996 Q 10.01183642578125 1.8455624999999998 9.99158642578125 1.8766874999999996 Q 9.971336425781251 1.9078124999999997 9.937211425781252 1.9254374999999997 Q 9.90308642578125 1.9430624999999997 9.86258642578125 1.9430624999999997 L 9.611336425781252 1.9430624999999997 L 9.611336425781252 1.4105624999999997 L 9.86783642578125 1.4105624999999997 Q 9.90533642578125 1.4105624999999997 9.932711425781251 1.4304374999999996 Q 9.96008642578125 1.4503124999999997 9.974711425781251 1.4814374999999997 Q 9.989336425781252 1.5125624999999996 9.989336425781252 1.5463124999999998 Q 9.989336425781252 1.5860624999999997 9.969086425781251 1.6198124999999997 Q 9.94883642578125 1.6535624999999996 9.91283642578125 1.6700624999999998 Q 9.95858642578125 1.6835624999999996 9.985211425781252 1.7203124999999997 Q 10.01183642578125 1.7570624999999997 10.01183642578125 1.8058124999999996 M 9.95933642578125 1.7968124999999997 Q 9.95933642578125 1.7698124999999996 9.94733642578125 1.7469374999999996 Q 9.935336425781252 1.7240624999999996 9.91471142578125 1.7098124999999997 Q 9.894086425781252 1.6955624999999996 9.86783642578125 1.6955624999999996 L 9.66383642578125 1.6955624999999996 L 9.66383642578125 1.8973124999999997 L 9.86258642578125 1.8973124999999997 Q 9.889586425781252 1.8973124999999997 9.91133642578125 1.8830624999999996 Q 9.933086425781251 1.8688124999999998 9.94621142578125 1.8459374999999998 Q 9.95933642578125 1.8230624999999998 9.95933642578125 1.7968124999999997 M 9.66383642578125 1.4563124999999997 L 9.66383642578125 1.6528124999999996 L 9.846836425781252 1.6528124999999996 Q 9.873086425781251 1.6528124999999996 9.893336425781252 1.6389374999999997 Q 9.91358642578125 1.6250624999999996 9.925586425781251 1.6025624999999997 Q 9.937586425781252 1.5800624999999997 9.937586425781252 1.5545624999999996 Q 9.937586425781252 1.5275624999999997 9.926336425781251 1.5054374999999998 Q 9.91508642578125 1.4833124999999998 9.895586425781252 1.4698124999999997 Q 9.876086425781251 1.4563124999999997 9.85133642578125 1.4563124999999997 L 9.66383642578125 1.4563124999999997 M 10.111973144531252 1.9430624999999997 L 10.111973144531252 1.4105624999999997 L 10.16447314453125 1.4105624999999997 L 10.16447314453125 1.9430624999999997 L 10.111973144531252 1.9430624999999997 M 10.299087524414064 1.9430624999999997 L 10.299087524414064 1.4105624999999997 L 10.351587524414063 1.4105624999999997 L 10.351587524414063 1.8965624999999997 L 10.659087524414064 1.8965624999999997 L 10.659087524414064 1.9430624999999997 L 10.299087524414064 1.9430624999999997 M 10.737468383789064 1.9430624999999997 L 10.737468383789064 1.4105624999999997 L 10.789968383789063 1.4105624999999997 L 10.789968383789063 1.9430624999999997 L 10.737468383789064 1.9430624999999997 M 11.302582763671877 1.4570624999999997 L 11.112832763671877 1.4570624999999997 L 11.112832763671877 1.9430624999999997 L 11.060332763671877 1.9430624999999997 L 11.060332763671877 1.4570624999999997 L 10.870582763671877 1.4570624999999997 L 10.870582763671877 1.4105624999999997 L 11.302582763671877 1.4105624999999997 L 11.302582763671877 1.4570624999999997 M 11.386196777343752 1.4105624999999997 L 11.560196777343752 1.6970624999999997 L 11.735696777343751 1.4105624999999997 L 11.792696777343751 1.4105624999999997 L 11.58644677734375 1.7450624999999997 L 11.58644677734375 1.9430624999999997 L 11.53394677734375 1.9430624999999997 L 11.53394677734375 1.7435624999999997 L 11.328446777343752 1.4105624999999997 L 11.386196777343752 1.4105624999999997" fill="#dce2e3" fill-rule="nonzero"></path></g></g><defs><clipPath id="SvgjsClipPath92091"><path d=" M -4.47580228509523 -1.0663698925476148 h 4.07580228509523 v 4.07580228509523 h -4.07580228509523 Z"></path></clipPath></defs></svg>